<?xml version="1.0" encoding="UTF-8" standalone="no"?>
<!-- Created with Inkscape (http://www.inkscape.org/) -->

<svg
   version="1.1"
   id="svg211"
   width="677.25507"
   height="909.36694"
   viewBox="0 0 677.25507 909.36694"
   sodipodi:docname="DALL·E 2023-02-02 22.35.02 - gaming achievement icon for programming, vector art.png"
   xmlns:inkscape="http://www.inkscape.org/namespaces/inkscape"
   xmlns:sodipodi="http://sodipodi.sourceforge.net/DTD/sodipodi-0.dtd"
   xmlns="http://www.w3.org/2000/svg"
   xmlns:svg="http://www.w3.org/2000/svg">
  <defs
     id="defs215" />
  <sodipodi:namedview
     id="namedview213"
     pagecolor="#ffffff"
     bordercolor="#000000"
     borderopacity="0.25"
     inkscape:showpageshadow="2"
     inkscape:pageopacity="0.0"
     inkscape:pagecheckerboard="0"
     inkscape:deskcolor="#d1d1d1"
     showgrid="false" />
  <g
     inkscape:groupmode="layer"
     inkscape:label="Image"
     id="g217">
    <path
       style="opacity:1;fill:#5f53f0;fill-opacity:1;stroke:#2d2a48;stroke-width:15;stroke-linecap:round;stroke-linejoin:miter;stroke-dasharray:none;stroke-opacity:1"
       d="m 334.43651,673.18964 c 0,0 38.47746,49.86387 53.66594,80.91172 19.8678,40.61318 37.15334,130.4495 37.15334,130.4495 0,0 25.96962,-58.18695 32.19956,-89.16801 8.64525,-42.99222 2.47689,-85.8655 2.47689,-85.8655 0,0 37.53706,6.85777 66.05039,25.59452 27.89034,18.32739 75.95794,65.22476 75.95794,65.22476 0,0 -1.70852,-59.7839 -57.79409,-161.82345 C 521.12319,596.62566 461.5835,521.27375 461.5835,521.27375 Z"
       id="path6956"
       sodipodi:nodetypes="cscscscscc" />
    <path
       style="opacity:1;fill:#5f53f0;fill-opacity:1;stroke:#2d2a48;stroke-width:15;stroke-linecap:round;stroke-linejoin:miter;stroke-dasharray:none;stroke-opacity:1"
       d="m 338.11634,673.18964 c 0,0 -38.47746,49.86387 -53.66594,80.91172 -19.8678,40.61318 -37.15334,130.4495 -37.15334,130.4495 0,0 -25.96962,-58.18695 -32.19956,-89.16801 -8.64525,-42.99222 -2.47689,-85.8655 -2.47689,-85.8655 0,0 -37.53706,6.85777 -66.05039,25.59452 -27.89034,18.32739 -75.957943,65.22476 -75.957943,65.22476 0,0 1.70852,-59.7839 57.794093,-161.82345 23.02329,-41.88752 82.56298,-117.23943 82.56298,-117.23943 z"
       id="path6485"
       sodipodi:nodetypes="cscscscscc" />
    <path
       style="fill:#2d2a48;fill-opacity:1;stroke:none;stroke-width:0.377953;stroke-linecap:square;stroke-linejoin:bevel"
       d="M 43.343057,336.33268 C 8.2452274,256.29197 -12.976963,160.29263 8.8497474,76.418127 19.706407,34.69872 44.851837,11.419886 82.688017,4.1096445 102.37129,0.30668452 228.90336,-0.53644548 338.60104,0.28918452 c 109.69768,-0.82563 236.22975,0.0175 255.91302,3.82045998 37.83618,7.3102415 62.98161,30.5890755 73.83827,72.3084825 21.82671,83.874503 0.91601,180.011153 -34.49331,259.914553 -62.21253,140.38658 -297.59321,351.63531 -297.59321,351.63531 0,0 -231.65952,-211.92431 -292.922753,-351.63531 z"
       id="path275"
       sodipodi:nodetypes="asscssaca" />
    <path
       style="fill:#5f51f0;fill-opacity:1;stroke:none;stroke-width:0.377953;stroke-linecap:square;stroke-linejoin:bevel"
       d="M 59.633087,332.85895 C 26.471507,257.23383 6.4200874,166.53047 27.042687,87.283057 37.300407,47.865177 61.058637,25.870562 96.807497,18.963604 115.4049,15.370441 234.95654,14.573824 338.6025,15.353906 c 103.64596,-0.780082 223.19761,0.01653 241.79501,3.609698 35.74886,6.906958 59.50708,28.901573 69.76481,68.319453 20.62259,79.247413 0.86548,170.080513 -32.59041,245.575893 -58.78043,132.6419 -281.17581,332.23672 -281.17581,332.23672 0,0 -218.8795,-200.23313 -276.763013,-332.23672 z"
       id="path1769"
       sodipodi:nodetypes="asscssaca" />
    <path
       id="path4747"
       style="fill:#01d2cd;fill-opacity:1;stroke:#2d2a48;stroke-width:15;stroke-linecap:square;stroke-linejoin:bevel;stroke-dasharray:none;stroke-opacity:1"
       d="m 254.2775,7.8465075 c -18.6439,0.01511 -35.59752,0.175595 -52.8418,0.310547 -18.02222,0.768184 -32.21413,-0.920954 -44.33843,5.1155015 -35.78298,17.815643 -23.46876,77.165701 -22.18555,116.761724 2.01804,62.27055 46.70508,180.98047 46.70508,180.98047 l 160.21094,71.22461 147.11125,-71.22461 c 0,0 44.68704,-118.70992 46.70508,-180.98047 C 536.92728,90.438257 551.17706,26.506263 513.45852,13.272556 502.21557,9.3279195 490.5889,8.5526685 467.70516,8.1980705 c -44.26877,-0.393668 -94.73084,-0.427968 -143.0293,-0.06445 -27.42439,-0.206408 -42.80222,-0.30947 -70.39836,-0.28711 z"
       sodipodi:nodetypes="scsscccssccss" />
    <path
       sodipodi:type="star"
       style="fill:#ffffff;fill-opacity:1;stroke:#292744;stroke-width:37.2148;stroke-linecap:round;stroke-linejoin:bevel;stroke-dasharray:none;stroke-opacity:1"
       id="path4687"
       inkscape:flatsided="false"
       sodipodi:sides="16"
       sodipodi:cx="353.36957"
       sodipodi:cy="133.75203"
       sodipodi:r1="360.28125"
       sodipodi:r2="331.45874"
       sodipodi:arg1="0.68476208"
       sodipodi:arg2="0.88111162"
       inkscape:rounded="0.3"
       inkscape:randomized="0"
       d="m 632.43245,361.62586 c -13.96916,17.10717 -51.11949,13.77571 -68.15768,27.82891 -17.03819,14.05321 -20.8358,51.15878 -40.28825,61.61797 -19.45246,10.4592 -52.49999,-6.83549 -73.61916,-0.37225 -21.11916,6.46323 -38.82738,39.29103 -60.80167,41.50993 -21.97428,2.2189 -45.88783,-26.40605 -67.87277,-28.51675 -21.98494,-2.1107 -50.90785,21.44159 -72.05858,15.08239 -21.15073,-6.3592 -32.28967,-41.95652 -51.79338,-52.31983 -19.5037,-10.36331 -55.23806,0.32785 -72.34523,-13.64131 -17.10716,-13.96917 -13.7757,-51.1195 -27.828904,-68.15769 C 83.613619,327.61904 46.508044,323.82143 36.048852,304.36898 25.589661,284.91652 42.884347,251.86899 36.421111,230.74983 29.957876,209.63066 -2.8699238,191.92244 -5.0888253,169.94815 -7.3077269,147.97387 21.317223,124.06032 23.427927,102.07538 25.538631,80.090445 1.9863416,51.167527 8.3455378,30.0168 14.704734,8.8660733 50.302058,-2.2728702 60.665366,-21.776574 c 10.363308,-19.503704 -0.327848,-55.238067 13.641316,-72.345232 13.969164,-17.107164 51.119488,-13.775704 68.157688,-27.828904 17.03819,-14.05321 20.8358,-51.15878 40.28825,-61.61798 19.45245,-10.45919 52.49999,6.8355 73.61915,0.37226 21.11917,-6.46323 38.82739,-39.29103 60.80167,-41.50993 21.97429,-2.21891 45.88783,26.40604 67.87277,28.51675 21.98494,2.1107 50.90786,-21.44159 72.05859,-15.08239 21.15072,6.3592 32.28967,41.95652 51.79337,52.31983 19.50371,10.36331 55.23807,-0.32785 72.34523,13.64131 17.10717,13.96917 13.7757,51.119495 27.82891,68.157688 14.05321,17.038192 51.15878,20.835801 61.61797,40.288254 10.45919,19.452453 -6.83549,52.499985 -0.37226,73.619151 6.46324,21.119167 39.29104,38.827389 41.50994,60.801672 2.2189,21.974285 -26.40605,45.887835 -28.51675,67.872765 -2.1107,21.98494 21.44158,50.90786 15.08239,72.05859 -6.3592,21.15073 -41.95652,32.28967 -52.31983,51.79337 -10.36331,19.50371 0.32785,55.23807 -13.64132,72.34523 z"
       transform="matrix(0.3855374,0.11757068,-0.11757068,0.3855374,215.10415,165.61115)" />
    <path
       style="fill:none;fill-opacity:1;stroke:#292744;stroke-width:13;stroke-linecap:butt;stroke-linejoin:bevel;stroke-dasharray:none;stroke-opacity:1"
       d="m 305.38467,249.71496 c 0,0 -31.33509,0.42789 -43.20182,-8.17332 -12.41177,-8.99626 -25.20417,-25.25388 -22.18472,-40.28278 3.08301,-15.34528 36.77993,-29.19042 36.77993,-29.19042"
       id="path4573"
       sodipodi:nodetypes="caac" />
    <path
       style="fill:#00cfcc;fill-opacity:1;stroke:#292744;stroke-width:10;stroke-linecap:square;stroke-linejoin:bevel;stroke-dasharray:none;stroke-opacity:1"
       d="m 385.51694,344.8917 c 0,0 2.00374,-19.53731 -9.34093,-33.86887 -12.18154,-15.38875 -26.35804,-14.01938 -26.35804,-14.01938 v -29.19043 c 0,0 27.15585,-29.75332 35.11517,-47.87229 8.88899,-20.23531 12.84378,-65.04903 12.84378,-65.04903 h -61.95895 -61.95895 c 0,0 3.95479,44.81372 12.84378,65.04903 7.95932,18.11897 35.11517,47.87229 35.11517,47.87229 v 29.19043 c 0,0 -14.1765,-1.36937 -26.35804,14.01938 -11.34467,14.33156 -9.34093,33.86887 -9.34093,33.86887 h 49.69897 z"
       id="path4629"
       sodipodi:nodetypes="csccacccaccsccc" />
    <path
       style="fill:none;fill-opacity:1;stroke:#292744;stroke-width:13;stroke-linecap:butt;stroke-linejoin:bevel;stroke-dasharray:none;stroke-opacity:1"
       d="m 366.25127,249.71496 c 0,0 31.33509,0.42789 43.20182,-8.17332 12.41177,-8.99626 25.20417,-25.25388 22.18472,-40.28278 -3.08301,-15.34528 -36.77993,-29.19042 -36.77993,-29.19042"
       id="path4631"
       sodipodi:nodetypes="caac" />
    <path
       style="fill:none;fill-opacity:1;stroke:#292744;stroke-width:10;stroke-linecap:round;stroke-linejoin:bevel;stroke-dasharray:none;stroke-opacity:1"
       d="M 276.77806,344.8917 H 396.45879"
       id="path4633"
       sodipodi:nodetypes="cc" />
    <path
       id="path4690"
       style="display:inline;opacity:1;fill:#fd6543;fill-opacity:1;stroke:#2d2a48;stroke-width:15;stroke-linecap:square;stroke-linejoin:miter;stroke-dasharray:none;stroke-opacity:1"
       d="M 137.91752,8.9439205 C 100.122,9.5889675 99.800007,10.585233 91.386967,12.210697 c -37.83606,7.31022 -61.28137,22.489068 -72.138,64.20834 -21.8266496,83.874263 -2.39007,179.289793 32.70764,259.330263 0.46296,1.05578 1.02361,2.15288 1.50586,3.21679 l 26.5723,-80.49431 100.226563,48.77148 C 176.34694,296.71843 136.83228,189.29693 134.91172,130.03428 133.63435,90.618617 121.44318,31.641959 156.62852,13.532322 Z"
       sodipodi:nodetypes="cssscccscc" />
    <path
       sodipodi:type="star"
       style="opacity:1;fill:#292744;fill-opacity:1;stroke:none;stroke-width:41.7759;stroke-linecap:round;stroke-linejoin:bevel;stroke-dasharray:none;stroke-opacity:1"
       id="path5500"
       inkscape:flatsided="false"
       sodipodi:sides="5"
       sodipodi:cx="498.57242"
       sodipodi:cy="221.84721"
       sodipodi:r1="50.2211"
       sodipodi:r2="25.11055"
       sodipodi:arg1="0.95054684"
       sodipodi:arg2="1.5788654"
       inkscape:rounded="0"
       inkscape:randomized="0"
       d="m 527.76284,262.7138 -29.39304,-15.75685 -29.64348,15.28048 5.90271,-32.82358 -23.69294,-23.4707 33.04112,-4.52923 15.00044,-29.78617 14.51782,30.02436 32.96372,5.06183 -24.06861,23.08531 z"
       inkscape:transform-center-x="-0.024863543"
       inkscape:transform-center-y="-0.71950909"
       transform="matrix(0.35905838,0,0,0.35905838,157.06071,115.10259)" />
    <path
       id="path6429"
       style="display:inline;opacity:1;fill:#fd6543;fill-opacity:1;stroke:#2d2a48;stroke-width:15;stroke-linecap:square;stroke-linejoin:miter;stroke-dasharray:none;stroke-opacity:1"
       d="m 532.75348,8.7979685 c 37.79552,0.645047 38.55537,1.7872645 46.96841,3.4127285 37.83606,7.31022 61.28137,22.489068 72.138,64.20834 21.82665,83.874263 7.93499,179.873603 -27.16272,259.914073 -0.46296,1.05578 -1.02361,2.15288 -1.50586,3.21679 l -32.11722,-81.07812 -100.22656,48.77148 c 3.91439,-10.52483 43.42905,-117.94633 45.34961,-177.20898 1.27737,-39.415663 13.46854,-98.392321 -21.7168,-116.501958 z"
       sodipodi:nodetypes="cssscccscc" />
    <ellipse
       style="opacity:1;fill:#db2e83;fill-opacity:1;stroke:#2d2a48;stroke-width:9.99998;stroke-linecap:round;stroke-linejoin:miter;stroke-dasharray:none;stroke-opacity:1"
       id="path7737"
       cx="338.62799"
       cy="527.5"
       rx="32.5"
       ry="32.500011"
       inkscape:tile-cx="338.62799"
       inkscape:tile-cy="527.5"
       inkscape:tile-w="74.99998"
       inkscape:tile-h="75.000003"
       inkscape:tile-x0="301.128"
       inkscape:tile-y0="490" />
    <ellipse
       style="opacity:1;fill:#395765;fill-opacity:1;stroke:#2d2a48;stroke-width:9.99998;stroke-linecap:round;stroke-linejoin:miter;stroke-dasharray:none;stroke-opacity:1"
       id="ellipse9263"
       cx="518.62799"
       cy="377.5"
       rx="32.5"
       ry="32.500011"
       inkscape:tile-cx="338.62799"
       inkscape:tile-cy="527.5"
       inkscape:tile-w="74.99998"
       inkscape:tile-h="75.000003"
       inkscape:tile-x0="301.128"
       inkscape:tile-y0="490" />
    <ellipse
       style="opacity:1;fill:#d29000;fill-opacity:1;stroke:#2d2a48;stroke-width:10;stroke-linecap:round;stroke-linejoin:miter;stroke-dasharray:none;stroke-opacity:1"
       id="ellipse9265"
       cx="158.62799"
       cy="377.5"
       rx="32.5"
       ry="32.500011"
       inkscape:tile-cx="338.62799"
       inkscape:tile-cy="527.5"
       inkscape:tile-w="74.99998"
       inkscape:tile-h="75.000003"
       inkscape:tile-x0="301.128"
       inkscape:tile-y0="490" />
    <ellipse
       style="opacity:1;fill:#15ff77;fill-opacity:1;stroke:#2d2a48;stroke-width:9.99998;stroke-linecap:round;stroke-linejoin:miter;stroke-dasharray:none;stroke-opacity:1"
       id="ellipse9267"
       cx="438.62799"
       cy="457.5"
       rx="32.5"
       ry="32.500011"
       inkscape:tile-cx="338.62799"
       inkscape:tile-cy="527.5"
       inkscape:tile-w="74.99998"
       inkscape:tile-h="75.000003"
       inkscape:tile-x0="301.128"
       inkscape:tile-y0="490" />
    <ellipse
       style="opacity:1;fill:#2b8ff1;fill-opacity:1;stroke:#2d2a48;stroke-width:9.99998;stroke-linecap:round;stroke-linejoin:miter;stroke-dasharray:none;stroke-opacity:1"
       id="ellipse9269"
       cx="238.62799"
       cy="457.5"
       rx="32.5"
       ry="32.500011"
       inkscape:tile-cx="338.62799"
       inkscape:tile-cy="527.5"
       inkscape:tile-w="74.99998"
       inkscape:tile-h="75.000003"
       inkscape:tile-x0="301.128"
       inkscape:tile-y0="490" />
  </g>
</svg>
